<svg xmlns="http://www.w3.org/2000/svg" viewBox="0 0 100 100" preserveAspectRatio="xMidYMid" width="116" height="116" style="shape-rendering: auto; display: block; background: rgb(255, 255, 255);" xmlns:xlink="http://www.w3.org/1999/xlink"><g><g transform="rotate(0 50 50)">
  <rect fill="#c80d32" height="8" width="20" ry="4" rx="4.6000000000000005" y="20" x="40">
    <animate repeatCount="indefinite" begin="-0.7122302158273381s" dur="0.7194244604316546s" keyTimes="0;1" values="1;0" attributeName="opacity"></animate>
  </rect>
</g><g transform="rotate(3.6 50 50)">
  <rect fill="#c80d32" height="8" width="20" ry="4" rx="4.6000000000000005" y="20" x="40">
    <animate repeatCount="indefinite" begin="-0.7050359712230215s" dur="0.7194244604316546s" keyTimes="0;1" values="1;0" attributeName="opacity"></animate>
  </rect>
</g><g transform="rotate(7.2 50 50)">
  <rect fill="#c80d32" height="8" width="20" ry="4" rx="4.6000000000000005" y="20" x="40">
    <animate repeatCount="indefinite" begin="-0.697841726618705s" dur="0.7194244604316546s" keyTimes="0;1" values="1;0" attributeName="opacity"></animate>
  </rect>
</g><g transform="rotate(10.8 50 50)">
  <rect fill="#c80d32" height="8" width="20" ry="4" rx="4.6000000000000005" y="20" x="40">
    <animate repeatCount="indefinite" begin="-0.6906474820143885s" dur="0.7194244604316546s" keyTimes="0;1" values="1;0" attributeName="opacity"></animate>
  </rect>
</g><g transform="rotate(14.4 50 50)">
  <rect fill="#c80d32" height="8" width="20" ry="4" rx="4.6000000000000005" y="20" x="40">
    <animate repeatCount="indefinite" begin="-0.6834532374100719s" dur="0.7194244604316546s" keyTimes="0;1" values="1;0" attributeName="opacity"></animate>
  </rect>
</g><g transform="rotate(18 50 50)">
  <rect fill="#c80d32" height="8" width="20" ry="4" rx="4.6000000000000005" y="20" x="40">
    <animate repeatCount="indefinite" begin="-0.6762589928057554s" dur="0.7194244604316546s" keyTimes="0;1" values="1;0" attributeName="opacity"></animate>
  </rect>
</g><g transform="rotate(21.6 50 50)">
  <rect fill="#c80d32" height="8" width="20" ry="4" rx="4.6000000000000005" y="20" x="40">
    <animate repeatCount="indefinite" begin="-0.6690647482014388s" dur="0.7194244604316546s" keyTimes="0;1" values="1;0" attributeName="opacity"></animate>
  </rect>
</g><g transform="rotate(25.2 50 50)">
  <rect fill="#c80d32" height="8" width="20" ry="4" rx="4.6000000000000005" y="20" x="40">
    <animate repeatCount="indefinite" begin="-0.6618705035971223s" dur="0.7194244604316546s" keyTimes="0;1" values="1;0" attributeName="opacity"></animate>
  </rect>
</g><g transform="rotate(28.8 50 50)">
  <rect fill="#c80d32" height="8" width="20" ry="4" rx="4.6000000000000005" y="20" x="40">
    <animate repeatCount="indefinite" begin="-0.6546762589928058s" dur="0.7194244604316546s" keyTimes="0;1" values="1;0" attributeName="opacity"></animate>
  </rect>
</g><g transform="rotate(32.4 50 50)">
  <rect fill="#c80d32" height="8" width="20" ry="4" rx="4.6000000000000005" y="20" x="40">
    <animate repeatCount="indefinite" begin="-0.6474820143884892s" dur="0.7194244604316546s" keyTimes="0;1" values="1;0" attributeName="opacity"></animate>
  </rect>
</g><g transform="rotate(36 50 50)">
  <rect fill="#c80d32" height="8" width="20" ry="4" rx="4.6000000000000005" y="20" x="40">
    <animate repeatCount="indefinite" begin="-0.6402877697841727s" dur="0.7194244604316546s" keyTimes="0;1" values="1;0" attributeName="opacity"></animate>
  </rect>
</g><g transform="rotate(39.6 50 50)">
  <rect fill="#c80d32" height="8" width="20" ry="4" rx="4.6000000000000005" y="20" x="40">
    <animate repeatCount="indefinite" begin="-0.6330935251798561s" dur="0.7194244604316546s" keyTimes="0;1" values="1;0" attributeName="opacity"></animate>
  </rect>
</g><g transform="rotate(43.2 50 50)">
  <rect fill="#c80d32" height="8" width="20" ry="4" rx="4.6000000000000005" y="20" x="40">
    <animate repeatCount="indefinite" begin="-0.6258992805755396s" dur="0.7194244604316546s" keyTimes="0;1" values="1;0" attributeName="opacity"></animate>
  </rect>
</g><g transform="rotate(46.8 50 50)">
  <rect fill="#c80d32" height="8" width="20" ry="4" rx="4.6000000000000005" y="20" x="40">
    <animate repeatCount="indefinite" begin="-0.6187050359712231s" dur="0.7194244604316546s" keyTimes="0;1" values="1;0" attributeName="opacity"></animate>
  </rect>
</g><g transform="rotate(50.4 50 50)">
  <rect fill="#c80d32" height="8" width="20" ry="4" rx="4.6000000000000005" y="20" x="40">
    <animate repeatCount="indefinite" begin="-0.6115107913669064s" dur="0.7194244604316546s" keyTimes="0;1" values="1;0" attributeName="opacity"></animate>
  </rect>
</g><g transform="rotate(54 50 50)">
  <rect fill="#c80d32" height="8" width="20" ry="4" rx="4.6000000000000005" y="20" x="40">
    <animate repeatCount="indefinite" begin="-0.60431654676259s" dur="0.7194244604316546s" keyTimes="0;1" values="1;0" attributeName="opacity"></animate>
  </rect>
</g><g transform="rotate(57.6 50 50)">
  <rect fill="#c80d32" height="8" width="20" ry="4" rx="4.6000000000000005" y="20" x="40">
    <animate repeatCount="indefinite" begin="-0.5971223021582733s" dur="0.7194244604316546s" keyTimes="0;1" values="1;0" attributeName="opacity"></animate>
  </rect>
</g><g transform="rotate(61.2 50 50)">
  <rect fill="#c80d32" height="8" width="20" ry="4" rx="4.6000000000000005" y="20" x="40">
    <animate repeatCount="indefinite" begin="-0.5899280575539568s" dur="0.7194244604316546s" keyTimes="0;1" values="1;0" attributeName="opacity"></animate>
  </rect>
</g><g transform="rotate(64.8 50 50)">
  <rect fill="#c80d32" height="8" width="20" ry="4" rx="4.6000000000000005" y="20" x="40">
    <animate repeatCount="indefinite" begin="-0.5827338129496403s" dur="0.7194244604316546s" keyTimes="0;1" values="1;0" attributeName="opacity"></animate>
  </rect>
</g><g transform="rotate(68.4 50 50)">
  <rect fill="#c80d32" height="8" width="20" ry="4" rx="4.6000000000000005" y="20" x="40">
    <animate repeatCount="indefinite" begin="-0.5755395683453237s" dur="0.7194244604316546s" keyTimes="0;1" values="1;0" attributeName="opacity"></animate>
  </rect>
</g><g transform="rotate(72 50 50)">
  <rect fill="#c80d32" height="8" width="20" ry="4" rx="4.6000000000000005" y="20" x="40">
    <animate repeatCount="indefinite" begin="-0.5683453237410072s" dur="0.7194244604316546s" keyTimes="0;1" values="1;0" attributeName="opacity"></animate>
  </rect>
</g><g transform="rotate(75.6 50 50)">
  <rect fill="#c80d32" height="8" width="20" ry="4" rx="4.6000000000000005" y="20" x="40">
    <animate repeatCount="indefinite" begin="-0.5611510791366906s" dur="0.7194244604316546s" keyTimes="0;1" values="1;0" attributeName="opacity"></animate>
  </rect>
</g><g transform="rotate(79.2 50 50)">
  <rect fill="#c80d32" height="8" width="20" ry="4" rx="4.6000000000000005" y="20" x="40">
    <animate repeatCount="indefinite" begin="-0.5539568345323741s" dur="0.7194244604316546s" keyTimes="0;1" values="1;0" attributeName="opacity"></animate>
  </rect>
</g><g transform="rotate(82.8 50 50)">
  <rect fill="#c80d32" height="8" width="20" ry="4" rx="4.6000000000000005" y="20" x="40">
    <animate repeatCount="indefinite" begin="-0.5467625899280576s" dur="0.7194244604316546s" keyTimes="0;1" values="1;0" attributeName="opacity"></animate>
  </rect>
</g><g transform="rotate(86.4 50 50)">
  <rect fill="#c80d32" height="8" width="20" ry="4" rx="4.6000000000000005" y="20" x="40">
    <animate repeatCount="indefinite" begin="-0.539568345323741s" dur="0.7194244604316546s" keyTimes="0;1" values="1;0" attributeName="opacity"></animate>
  </rect>
</g><g transform="rotate(90 50 50)">
  <rect fill="#c80d32" height="8" width="20" ry="4" rx="4.6000000000000005" y="20" x="40">
    <animate repeatCount="indefinite" begin="-0.5323741007194245s" dur="0.7194244604316546s" keyTimes="0;1" values="1;0" attributeName="opacity"></animate>
  </rect>
</g><g transform="rotate(93.6 50 50)">
  <rect fill="#c80d32" height="8" width="20" ry="4" rx="4.6000000000000005" y="20" x="40">
    <animate repeatCount="indefinite" begin="-0.5251798561151079s" dur="0.7194244604316546s" keyTimes="0;1" values="1;0" attributeName="opacity"></animate>
  </rect>
</g><g transform="rotate(97.2 50 50)">
  <rect fill="#c80d32" height="8" width="20" ry="4" rx="4.6000000000000005" y="20" x="40">
    <animate repeatCount="indefinite" begin="-0.5179856115107914s" dur="0.7194244604316546s" keyTimes="0;1" values="1;0" attributeName="opacity"></animate>
  </rect>
</g><g transform="rotate(100.8 50 50)">
  <rect fill="#c80d32" height="8" width="20" ry="4" rx="4.6000000000000005" y="20" x="40">
    <animate repeatCount="indefinite" begin="-0.5107913669064749s" dur="0.7194244604316546s" keyTimes="0;1" values="1;0" attributeName="opacity"></animate>
  </rect>
</g><g transform="rotate(104.4 50 50)">
  <rect fill="#c80d32" height="8" width="20" ry="4" rx="4.6000000000000005" y="20" x="40">
    <animate repeatCount="indefinite" begin="-0.5035971223021583s" dur="0.7194244604316546s" keyTimes="0;1" values="1;0" attributeName="opacity"></animate>
  </rect>
</g><g transform="rotate(108 50 50)">
  <rect fill="#c80d32" height="8" width="20" ry="4" rx="4.6000000000000005" y="20" x="40">
    <animate repeatCount="indefinite" begin="-0.49640287769784175s" dur="0.7194244604316546s" keyTimes="0;1" values="1;0" attributeName="opacity"></animate>
  </rect>
</g><g transform="rotate(111.6 50 50)">
  <rect fill="#c80d32" height="8" width="20" ry="4" rx="4.6000000000000005" y="20" x="40">
    <animate repeatCount="indefinite" begin="-0.4892086330935252s" dur="0.7194244604316546s" keyTimes="0;1" values="1;0" attributeName="opacity"></animate>
  </rect>
</g><g transform="rotate(115.2 50 50)">
  <rect fill="#c80d32" height="8" width="20" ry="4" rx="4.6000000000000005" y="20" x="40">
    <animate repeatCount="indefinite" begin="-0.48201438848920863s" dur="0.7194244604316546s" keyTimes="0;1" values="1;0" attributeName="opacity"></animate>
  </rect>
</g><g transform="rotate(118.8 50 50)">
  <rect fill="#c80d32" height="8" width="20" ry="4" rx="4.6000000000000005" y="20" x="40">
    <animate repeatCount="indefinite" begin="-0.4748201438848921s" dur="0.7194244604316546s" keyTimes="0;1" values="1;0" attributeName="opacity"></animate>
  </rect>
</g><g transform="rotate(122.4 50 50)">
  <rect fill="#c80d32" height="8" width="20" ry="4" rx="4.6000000000000005" y="20" x="40">
    <animate repeatCount="indefinite" begin="-0.4676258992805755s" dur="0.7194244604316546s" keyTimes="0;1" values="1;0" attributeName="opacity"></animate>
  </rect>
</g><g transform="rotate(126 50 50)">
  <rect fill="#c80d32" height="8" width="20" ry="4" rx="4.6000000000000005" y="20" x="40">
    <animate repeatCount="indefinite" begin="-0.460431654676259s" dur="0.7194244604316546s" keyTimes="0;1" values="1;0" attributeName="opacity"></animate>
  </rect>
</g><g transform="rotate(129.6 50 50)">
  <rect fill="#c80d32" height="8" width="20" ry="4" rx="4.6000000000000005" y="20" x="40">
    <animate repeatCount="indefinite" begin="-0.45323741007194246s" dur="0.7194244604316546s" keyTimes="0;1" values="1;0" attributeName="opacity"></animate>
  </rect>
</g><g transform="rotate(133.2 50 50)">
  <rect fill="#c80d32" height="8" width="20" ry="4" rx="4.6000000000000005" y="20" x="40">
    <animate repeatCount="indefinite" begin="-0.4460431654676259s" dur="0.7194244604316546s" keyTimes="0;1" values="1;0" attributeName="opacity"></animate>
  </rect>
</g><g transform="rotate(136.8 50 50)">
  <rect fill="#c80d32" height="8" width="20" ry="4" rx="4.6000000000000005" y="20" x="40">
    <animate repeatCount="indefinite" begin="-0.43884892086330934s" dur="0.7194244604316546s" keyTimes="0;1" values="1;0" attributeName="opacity"></animate>
  </rect>
</g><g transform="rotate(140.4 50 50)">
  <rect fill="#c80d32" height="8" width="20" ry="4" rx="4.6000000000000005" y="20" x="40">
    <animate repeatCount="indefinite" begin="-0.4316546762589928s" dur="0.7194244604316546s" keyTimes="0;1" values="1;0" attributeName="opacity"></animate>
  </rect>
</g><g transform="rotate(144 50 50)">
  <rect fill="#c80d32" height="8" width="20" ry="4" rx="4.6000000000000005" y="20" x="40">
    <animate repeatCount="indefinite" begin="-0.4244604316546763s" dur="0.7194244604316546s" keyTimes="0;1" values="1;0" attributeName="opacity"></animate>
  </rect>
</g><g transform="rotate(147.6 50 50)">
  <rect fill="#c80d32" height="8" width="20" ry="4" rx="4.6000000000000005" y="20" x="40">
    <animate repeatCount="indefinite" begin="-0.4172661870503597s" dur="0.7194244604316546s" keyTimes="0;1" values="1;0" attributeName="opacity"></animate>
  </rect>
</g><g transform="rotate(151.2 50 50)">
  <rect fill="#c80d32" height="8" width="20" ry="4" rx="4.6000000000000005" y="20" x="40">
    <animate repeatCount="indefinite" begin="-0.41007194244604317s" dur="0.7194244604316546s" keyTimes="0;1" values="1;0" attributeName="opacity"></animate>
  </rect>
</g><g transform="rotate(154.8 50 50)">
  <rect fill="#c80d32" height="8" width="20" ry="4" rx="4.6000000000000005" y="20" x="40">
    <animate repeatCount="indefinite" begin="-0.4028776978417266s" dur="0.7194244604316546s" keyTimes="0;1" values="1;0" attributeName="opacity"></animate>
  </rect>
</g><g transform="rotate(158.4 50 50)">
  <rect fill="#c80d32" height="8" width="20" ry="4" rx="4.6000000000000005" y="20" x="40">
    <animate repeatCount="indefinite" begin="-0.39568345323741005s" dur="0.7194244604316546s" keyTimes="0;1" values="1;0" attributeName="opacity"></animate>
  </rect>
</g><g transform="rotate(162 50 50)">
  <rect fill="#c80d32" height="8" width="20" ry="4" rx="4.6000000000000005" y="20" x="40">
    <animate repeatCount="indefinite" begin="-0.38848920863309355s" dur="0.7194244604316546s" keyTimes="0;1" values="1;0" attributeName="opacity"></animate>
  </rect>
</g><g transform="rotate(165.6 50 50)">
  <rect fill="#c80d32" height="8" width="20" ry="4" rx="4.6000000000000005" y="20" x="40">
    <animate repeatCount="indefinite" begin="-0.381294964028777s" dur="0.7194244604316546s" keyTimes="0;1" values="1;0" attributeName="opacity"></animate>
  </rect>
</g><g transform="rotate(169.2 50 50)">
  <rect fill="#c80d32" height="8" width="20" ry="4" rx="4.6000000000000005" y="20" x="40">
    <animate repeatCount="indefinite" begin="-0.37410071942446044s" dur="0.7194244604316546s" keyTimes="0;1" values="1;0" attributeName="opacity"></animate>
  </rect>
</g><g transform="rotate(172.8 50 50)">
  <rect fill="#c80d32" height="8" width="20" ry="4" rx="4.6000000000000005" y="20" x="40">
    <animate repeatCount="indefinite" begin="-0.3669064748201439s" dur="0.7194244604316546s" keyTimes="0;1" values="1;0" attributeName="opacity"></animate>
  </rect>
</g><g transform="rotate(176.4 50 50)">
  <rect fill="#c80d32" height="8" width="20" ry="4" rx="4.6000000000000005" y="20" x="40">
    <animate repeatCount="indefinite" begin="-0.3597122302158273s" dur="0.7194244604316546s" keyTimes="0;1" values="1;0" attributeName="opacity"></animate>
  </rect>
</g><g transform="rotate(180 50 50)">
  <rect fill="#c80d32" height="8" width="20" ry="4" rx="4.6000000000000005" y="20" x="40">
    <animate repeatCount="indefinite" begin="-0.35251798561151076s" dur="0.7194244604316546s" keyTimes="0;1" values="1;0" attributeName="opacity"></animate>
  </rect>
</g><g transform="rotate(183.6 50 50)">
  <rect fill="#c80d32" height="8" width="20" ry="4" rx="4.6000000000000005" y="20" x="40">
    <animate repeatCount="indefinite" begin="-0.34532374100719426s" dur="0.7194244604316546s" keyTimes="0;1" values="1;0" attributeName="opacity"></animate>
  </rect>
</g><g transform="rotate(187.2 50 50)">
  <rect fill="#c80d32" height="8" width="20" ry="4" rx="4.6000000000000005" y="20" x="40">
    <animate repeatCount="indefinite" begin="-0.3381294964028777s" dur="0.7194244604316546s" keyTimes="0;1" values="1;0" attributeName="opacity"></animate>
  </rect>
</g><g transform="rotate(190.8 50 50)">
  <rect fill="#c80d32" height="8" width="20" ry="4" rx="4.6000000000000005" y="20" x="40">
    <animate repeatCount="indefinite" begin="-0.33093525179856115s" dur="0.7194244604316546s" keyTimes="0;1" values="1;0" attributeName="opacity"></animate>
  </rect>
</g><g transform="rotate(194.4 50 50)">
  <rect fill="#c80d32" height="8" width="20" ry="4" rx="4.6000000000000005" y="20" x="40">
    <animate repeatCount="indefinite" begin="-0.3237410071942446s" dur="0.7194244604316546s" keyTimes="0;1" values="1;0" attributeName="opacity"></animate>
  </rect>
</g><g transform="rotate(198 50 50)">
  <rect fill="#c80d32" height="8" width="20" ry="4" rx="4.6000000000000005" y="20" x="40">
    <animate repeatCount="indefinite" begin="-0.31654676258992803s" dur="0.7194244604316546s" keyTimes="0;1" values="1;0" attributeName="opacity"></animate>
  </rect>
</g><g transform="rotate(201.6 50 50)">
  <rect fill="#c80d32" height="8" width="20" ry="4" rx="4.6000000000000005" y="20" x="40">
    <animate repeatCount="indefinite" begin="-0.30935251798561153s" dur="0.7194244604316546s" keyTimes="0;1" values="1;0" attributeName="opacity"></animate>
  </rect>
</g><g transform="rotate(205.2 50 50)">
  <rect fill="#c80d32" height="8" width="20" ry="4" rx="4.6000000000000005" y="20" x="40">
    <animate repeatCount="indefinite" begin="-0.302158273381295s" dur="0.7194244604316546s" keyTimes="0;1" values="1;0" attributeName="opacity"></animate>
  </rect>
</g><g transform="rotate(208.8 50 50)">
  <rect fill="#c80d32" height="8" width="20" ry="4" rx="4.6000000000000005" y="20" x="40">
    <animate repeatCount="indefinite" begin="-0.2949640287769784s" dur="0.7194244604316546s" keyTimes="0;1" values="1;0" attributeName="opacity"></animate>
  </rect>
</g><g transform="rotate(212.4 50 50)">
  <rect fill="#c80d32" height="8" width="20" ry="4" rx="4.6000000000000005" y="20" x="40">
    <animate repeatCount="indefinite" begin="-0.28776978417266186s" dur="0.7194244604316546s" keyTimes="0;1" values="1;0" attributeName="opacity"></animate>
  </rect>
</g><g transform="rotate(216 50 50)">
  <rect fill="#c80d32" height="8" width="20" ry="4" rx="4.6000000000000005" y="20" x="40">
    <animate repeatCount="indefinite" begin="-0.2805755395683453s" dur="0.7194244604316546s" keyTimes="0;1" values="1;0" attributeName="opacity"></animate>
  </rect>
</g><g transform="rotate(219.6 50 50)">
  <rect fill="#c80d32" height="8" width="20" ry="4" rx="4.6000000000000005" y="20" x="40">
    <animate repeatCount="indefinite" begin="-0.2733812949640288s" dur="0.7194244604316546s" keyTimes="0;1" values="1;0" attributeName="opacity"></animate>
  </rect>
</g><g transform="rotate(223.2 50 50)">
  <rect fill="#c80d32" height="8" width="20" ry="4" rx="4.6000000000000005" y="20" x="40">
    <animate repeatCount="indefinite" begin="-0.26618705035971224s" dur="0.7194244604316546s" keyTimes="0;1" values="1;0" attributeName="opacity"></animate>
  </rect>
</g><g transform="rotate(226.8 50 50)">
  <rect fill="#c80d32" height="8" width="20" ry="4" rx="4.6000000000000005" y="20" x="40">
    <animate repeatCount="indefinite" begin="-0.2589928057553957s" dur="0.7194244604316546s" keyTimes="0;1" values="1;0" attributeName="opacity"></animate>
  </rect>
</g><g transform="rotate(230.4 50 50)">
  <rect fill="#c80d32" height="8" width="20" ry="4" rx="4.6000000000000005" y="20" x="40">
    <animate repeatCount="indefinite" begin="-0.2517985611510791s" dur="0.7194244604316546s" keyTimes="0;1" values="1;0" attributeName="opacity"></animate>
  </rect>
</g><g transform="rotate(234 50 50)">
  <rect fill="#c80d32" height="8" width="20" ry="4" rx="4.6000000000000005" y="20" x="40">
    <animate repeatCount="indefinite" begin="-0.2446043165467626s" dur="0.7194244604316546s" keyTimes="0;1" values="1;0" attributeName="opacity"></animate>
  </rect>
</g><g transform="rotate(237.6 50 50)">
  <rect fill="#c80d32" height="8" width="20" ry="4" rx="4.6000000000000005" y="20" x="40">
    <animate repeatCount="indefinite" begin="-0.23741007194244604s" dur="0.7194244604316546s" keyTimes="0;1" values="1;0" attributeName="opacity"></animate>
  </rect>
</g><g transform="rotate(241.2 50 50)">
  <rect fill="#c80d32" height="8" width="20" ry="4" rx="4.6000000000000005" y="20" x="40">
    <animate repeatCount="indefinite" begin="-0.2302158273381295s" dur="0.7194244604316546s" keyTimes="0;1" values="1;0" attributeName="opacity"></animate>
  </rect>
</g><g transform="rotate(244.8 50 50)">
  <rect fill="#c80d32" height="8" width="20" ry="4" rx="4.6000000000000005" y="20" x="40">
    <animate repeatCount="indefinite" begin="-0.22302158273381295s" dur="0.7194244604316546s" keyTimes="0;1" values="1;0" attributeName="opacity"></animate>
  </rect>
</g><g transform="rotate(248.4 50 50)">
  <rect fill="#c80d32" height="8" width="20" ry="4" rx="4.6000000000000005" y="20" x="40">
    <animate repeatCount="indefinite" begin="-0.2158273381294964s" dur="0.7194244604316546s" keyTimes="0;1" values="1;0" attributeName="opacity"></animate>
  </rect>
</g><g transform="rotate(252 50 50)">
  <rect fill="#c80d32" height="8" width="20" ry="4" rx="4.6000000000000005" y="20" x="40">
    <animate repeatCount="indefinite" begin="-0.20863309352517986s" dur="0.7194244604316546s" keyTimes="0;1" values="1;0" attributeName="opacity"></animate>
  </rect>
</g><g transform="rotate(255.6 50 50)">
  <rect fill="#c80d32" height="8" width="20" ry="4" rx="4.6000000000000005" y="20" x="40">
    <animate repeatCount="indefinite" begin="-0.2014388489208633s" dur="0.7194244604316546s" keyTimes="0;1" values="1;0" attributeName="opacity"></animate>
  </rect>
</g><g transform="rotate(259.2 50 50)">
  <rect fill="#c80d32" height="8" width="20" ry="4" rx="4.6000000000000005" y="20" x="40">
    <animate repeatCount="indefinite" begin="-0.19424460431654678s" dur="0.7194244604316546s" keyTimes="0;1" values="1;0" attributeName="opacity"></animate>
  </rect>
</g><g transform="rotate(262.8 50 50)">
  <rect fill="#c80d32" height="8" width="20" ry="4" rx="4.6000000000000005" y="20" x="40">
    <animate repeatCount="indefinite" begin="-0.18705035971223022s" dur="0.7194244604316546s" keyTimes="0;1" values="1;0" attributeName="opacity"></animate>
  </rect>
</g><g transform="rotate(266.4 50 50)">
  <rect fill="#c80d32" height="8" width="20" ry="4" rx="4.6000000000000005" y="20" x="40">
    <animate repeatCount="indefinite" begin="-0.17985611510791366s" dur="0.7194244604316546s" keyTimes="0;1" values="1;0" attributeName="opacity"></animate>
  </rect>
</g><g transform="rotate(270 50 50)">
  <rect fill="#c80d32" height="8" width="20" ry="4" rx="4.6000000000000005" y="20" x="40">
    <animate repeatCount="indefinite" begin="-0.17266187050359713s" dur="0.7194244604316546s" keyTimes="0;1" values="1;0" attributeName="opacity"></animate>
  </rect>
</g><g transform="rotate(273.6 50 50)">
  <rect fill="#c80d32" height="8" width="20" ry="4" rx="4.6000000000000005" y="20" x="40">
    <animate repeatCount="indefinite" begin="-0.16546762589928057s" dur="0.7194244604316546s" keyTimes="0;1" values="1;0" attributeName="opacity"></animate>
  </rect>
</g><g transform="rotate(277.2 50 50)">
  <rect fill="#c80d32" height="8" width="20" ry="4" rx="4.6000000000000005" y="20" x="40">
    <animate repeatCount="indefinite" begin="-0.15827338129496402s" dur="0.7194244604316546s" keyTimes="0;1" values="1;0" attributeName="opacity"></animate>
  </rect>
</g><g transform="rotate(280.8 50 50)">
  <rect fill="#c80d32" height="8" width="20" ry="4" rx="4.6000000000000005" y="20" x="40">
    <animate repeatCount="indefinite" begin="-0.1510791366906475s" dur="0.7194244604316546s" keyTimes="0;1" values="1;0" attributeName="opacity"></animate>
  </rect>
</g><g transform="rotate(284.4 50 50)">
  <rect fill="#c80d32" height="8" width="20" ry="4" rx="4.6000000000000005" y="20" x="40">
    <animate repeatCount="indefinite" begin="-0.14388489208633093s" dur="0.7194244604316546s" keyTimes="0;1" values="1;0" attributeName="opacity"></animate>
  </rect>
</g><g transform="rotate(288 50 50)">
  <rect fill="#c80d32" height="8" width="20" ry="4" rx="4.6000000000000005" y="20" x="40">
    <animate repeatCount="indefinite" begin="-0.1366906474820144s" dur="0.7194244604316546s" keyTimes="0;1" values="1;0" attributeName="opacity"></animate>
  </rect>
</g><g transform="rotate(291.6 50 50)">
  <rect fill="#c80d32" height="8" width="20" ry="4" rx="4.6000000000000005" y="20" x="40">
    <animate repeatCount="indefinite" begin="-0.12949640287769784s" dur="0.7194244604316546s" keyTimes="0;1" values="1;0" attributeName="opacity"></animate>
  </rect>
</g><g transform="rotate(295.2 50 50)">
  <rect fill="#c80d32" height="8" width="20" ry="4" rx="4.6000000000000005" y="20" x="40">
    <animate repeatCount="indefinite" begin="-0.1223021582733813s" dur="0.7194244604316546s" keyTimes="0;1" values="1;0" attributeName="opacity"></animate>
  </rect>
</g><g transform="rotate(298.8 50 50)">
  <rect fill="#c80d32" height="8" width="20" ry="4" rx="4.6000000000000005" y="20" x="40">
    <animate repeatCount="indefinite" begin="-0.11510791366906475s" dur="0.7194244604316546s" keyTimes="0;1" values="1;0" attributeName="opacity"></animate>
  </rect>
</g><g transform="rotate(302.4 50 50)">
  <rect fill="#c80d32" height="8" width="20" ry="4" rx="4.6000000000000005" y="20" x="40">
    <animate repeatCount="indefinite" begin="-0.1079136690647482s" dur="0.7194244604316546s" keyTimes="0;1" values="1;0" attributeName="opacity"></animate>
  </rect>
</g><g transform="rotate(306 50 50)">
  <rect fill="#c80d32" height="8" width="20" ry="4" rx="4.6000000000000005" y="20" x="40">
    <animate repeatCount="indefinite" begin="-0.10071942446043165s" dur="0.7194244604316546s" keyTimes="0;1" values="1;0" attributeName="opacity"></animate>
  </rect>
</g><g transform="rotate(309.6 50 50)">
  <rect fill="#c80d32" height="8" width="20" ry="4" rx="4.6000000000000005" y="20" x="40">
    <animate repeatCount="indefinite" begin="-0.09352517985611511s" dur="0.7194244604316546s" keyTimes="0;1" values="1;0" attributeName="opacity"></animate>
  </rect>
</g><g transform="rotate(313.2 50 50)">
  <rect fill="#c80d32" height="8" width="20" ry="4" rx="4.6000000000000005" y="20" x="40">
    <animate repeatCount="indefinite" begin="-0.08633093525179857s" dur="0.7194244604316546s" keyTimes="0;1" values="1;0" attributeName="opacity"></animate>
  </rect>
</g><g transform="rotate(316.8 50 50)">
  <rect fill="#c80d32" height="8" width="20" ry="4" rx="4.6000000000000005" y="20" x="40">
    <animate repeatCount="indefinite" begin="-0.07913669064748201s" dur="0.7194244604316546s" keyTimes="0;1" values="1;0" attributeName="opacity"></animate>
  </rect>
</g><g transform="rotate(320.4 50 50)">
  <rect fill="#c80d32" height="8" width="20" ry="4" rx="4.6000000000000005" y="20" x="40">
    <animate repeatCount="indefinite" begin="-0.07194244604316546s" dur="0.7194244604316546s" keyTimes="0;1" values="1;0" attributeName="opacity"></animate>
  </rect>
</g><g transform="rotate(324 50 50)">
  <rect fill="#c80d32" height="8" width="20" ry="4" rx="4.6000000000000005" y="20" x="40">
    <animate repeatCount="indefinite" begin="-0.06474820143884892s" dur="0.7194244604316546s" keyTimes="0;1" values="1;0" attributeName="opacity"></animate>
  </rect>
</g><g transform="rotate(327.6 50 50)">
  <rect fill="#c80d32" height="8" width="20" ry="4" rx="4.6000000000000005" y="20" x="40">
    <animate repeatCount="indefinite" begin="-0.05755395683453238s" dur="0.7194244604316546s" keyTimes="0;1" values="1;0" attributeName="opacity"></animate>
  </rect>
</g><g transform="rotate(331.2 50 50)">
  <rect fill="#c80d32" height="8" width="20" ry="4" rx="4.6000000000000005" y="20" x="40">
    <animate repeatCount="indefinite" begin="-0.050359712230215826s" dur="0.7194244604316546s" keyTimes="0;1" values="1;0" attributeName="opacity"></animate>
  </rect>
</g><g transform="rotate(334.8 50 50)">
  <rect fill="#c80d32" height="8" width="20" ry="4" rx="4.6000000000000005" y="20" x="40">
    <animate repeatCount="indefinite" begin="-0.04316546762589928s" dur="0.7194244604316546s" keyTimes="0;1" values="1;0" attributeName="opacity"></animate>
  </rect>
</g><g transform="rotate(338.4 50 50)">
  <rect fill="#c80d32" height="8" width="20" ry="4" rx="4.6000000000000005" y="20" x="40">
    <animate repeatCount="indefinite" begin="-0.03597122302158273s" dur="0.7194244604316546s" keyTimes="0;1" values="1;0" attributeName="opacity"></animate>
  </rect>
</g><g transform="rotate(342 50 50)">
  <rect fill="#c80d32" height="8" width="20" ry="4" rx="4.6000000000000005" y="20" x="40">
    <animate repeatCount="indefinite" begin="-0.02877697841726619s" dur="0.7194244604316546s" keyTimes="0;1" values="1;0" attributeName="opacity"></animate>
  </rect>
</g><g transform="rotate(345.6 50 50)">
  <rect fill="#c80d32" height="8" width="20" ry="4" rx="4.6000000000000005" y="20" x="40">
    <animate repeatCount="indefinite" begin="-0.02158273381294964s" dur="0.7194244604316546s" keyTimes="0;1" values="1;0" attributeName="opacity"></animate>
  </rect>
</g><g transform="rotate(349.2 50 50)">
  <rect fill="#c80d32" height="8" width="20" ry="4" rx="4.6000000000000005" y="20" x="40">
    <animate repeatCount="indefinite" begin="-0.014388489208633094s" dur="0.7194244604316546s" keyTimes="0;1" values="1;0" attributeName="opacity"></animate>
  </rect>
</g><g transform="rotate(352.8 50 50)">
  <rect fill="#c80d32" height="8" width="20" ry="4" rx="4.6000000000000005" y="20" x="40">
    <animate repeatCount="indefinite" begin="-0.007194244604316547s" dur="0.7194244604316546s" keyTimes="0;1" values="1;0" attributeName="opacity"></animate>
  </rect>
</g><g transform="rotate(356.4 50 50)">
  <rect fill="#c80d32" height="8" width="20" ry="4" rx="4.6000000000000005" y="20" x="40">
    <animate repeatCount="indefinite" begin="0s" dur="0.7194244604316546s" keyTimes="0;1" values="1;0" attributeName="opacity"></animate>
  </rect>
</g><g></g></g><!-- [ldio] generated by https://loading.io --></svg>